{"title":"Alexandra Stan - Cherry Pop [Music Video] 720p [Sbyky]","uid":10914124,"size":41218437,"categoryP":"video","categoryS":"music_videos","magnet":"?xt=urn:btih:e4296da1afeff5a94163aa47314dec494323f4eb&amp;dn=Alexandra+Stan+-+Cherry+Pop+%5BMusic+Video%5D+720p+%5BSbyky%5D&amp;tr=udp%3A%2F%2Ftracker.openbittorrent.com%3A80&amp;tr=udp%3A%2F%2Fopen.demonii.com%3A1337&amp;tr=udp%3A%2F%2Ftracker.coppersurfer.tk%3A6969&amp;tr=udp%3A%2F%2Fexodus.desync.com%3A6969","seeders":1,"leechers":0,"uploader":"Sbyky","files":1,"time":1409288108,"description":"\n\nGeneral\nComplete name                            : Alexandra Stan - Cherry Pop [Music Video] 720p [Sbyky].mp4\nFormat                                   : MPEG-4\nFormat profile                           : Base Media\nCodec ID                                 : isom\nFile size                                : 39.3 MiB\nDuration                                 : 3mn 18s\nOverall bit rate mode                    : Variable\nOverall bit rate                         : 1 659 Kbps\nEncoded date                             : UTC 2014-06-02 20:08:03\nTagged date                              : UTC 2014-06-02 20:08:03\n\nVideo\nID                                       : 1\nFormat                                   : AVC\nFormat/Info                              : Advanced Video Codec\nFormat profile                           : &lt;a class=&quot;__cf_email__&quot; href=&quot;/cdn-cgi/l/email-protection&quot; data-cfemail=&quot;5f123e36311f136c716e&quot;&gt;[email&amp;#160;protected]&lt;/a&gt;&lt;script cf-hash='f9e31' type=&quot;text/javascript&quot;&gt;\n/* &lt;![CDATA[ */!function(){try{var t=&quot;currentScript&quot;in document?document.currentScript:function(){for(var t=document.getElementsByTagName(&quot;script&quot;),e=t.length;e--;)if(t[e].getAttribute(&quot;cf-hash&quot;))return t[e]}();if(t&amp;&amp;t.previousSibling){var e,r,n,i,c=t.previousSibling,a=c.getAttribute(&quot;data-cfemail&quot;);if(a){for(e=&quot;&quot;,r=parseInt(a.substr(0,2),16),n=2;a.length-n;n+=2)i=parseInt(a.substr(n,2),16)^r,e+=String.fromCharCode(i);e=document.createTextNode(e),c.parentNode.replaceChild(e,c)}}}catch(u){}}();/* ]]&gt; */&lt;/script&gt;\nFormat settings, CABAC                   : Yes\nFormat settings, ReFrames                : 3 frames\nCodec ID                                 : avc1\nCodec ID/Info                            : Advanced Video Coding\nDuration                                 : 3mn 18s\nDuration_LastFrame                       : -39ms\nBit rate                                 : 1 530 Kbps\nWidth                                    : 1 280 pixels\nHeight                                   : 720 pixels\nDisplay aspect ratio                     : 16:9\nFrame rate mode                          : Constant\nFrame rate                               : 25.000 fps\nColor space                              : YUV\nChroma subsampling                       : 4:2:0\nBit depth                                : 8 bits\nScan type                                : Progressive\nBits/(Pixel*Frame)                       : 0.066\nStream size                              : 36.2 MiB (92%)\nEncoded date                             : UTC 2014-06-02 20:08:03\nTagged date                              : UTC 2014-06-02 20:08:03\n\nAudio\nID                                       : 2\nFormat                                   : AAC\nFormat/Info                              : Advanced Audio Codec\nFormat profile                           : LC\nCodec ID                                 : 40\nDuration                                 : 3mn 18s\nBit rate mode                            : Variable\nBit rate                                 : 126 Kbps\nChannel(s)                               : 2 channels\nChannel positions                        : Front: L R\nSampling rate                            : 44.1 KHz\nCompression mode                         : Lossy\nStream size                              : 2.98 MiB (8%)\nEncoded date                             : UTC 2014-06-02 20:07:33\nTagged date                              : UTC 2014-06-02 20:07:33\n\nShared By Sbyky\n","torrent":{"xt":"urn:btih:e4296da1afeff5a94163aa47314dec494323f4eb","amp;dn":"Alexandra+Stan+-+Cherry+Pop+%5BMusic+Video%5D+720p+%5BSbyky%5D","amp;tr":["udp%3A%2F%2Ftracker.openbittorrent.com%3A80","udp%3A%2F%2Fopen.demonii.com%3A1337","udp%3A%2F%2Ftracker.coppersurfer.tk%3A6969","udp%3A%2F%2Fexodus.desync.com%3A6969"],"infoHash":"e4296da1afeff5a94163aa47314dec494323f4eb","infoHashBuffer":{"type":"Buffer","data":[228,41,109,161,175,239,245,169,65,99,170,71,49,77,236,73,67,35,244,235]},"announce":[],"urlList":[]}}